<svg width="276" height="276" viewBox="0 0 276 276" fill="none" xmlns="http://www.w3.org/2000/svg">
<mask id="mask0_61109_439" style="mask-type:alpha" maskUnits="userSpaceOnUse" x="9" y="12" width="256" height="256">
<circle cx="137" cy="140" r="128" fill="#C4C4C4"/>
</mask>
<g mask="url(#mask0_61109_439)">
<path d="M0 0H276V276H0V0Z" fill="#EBAF83"/>
<path d="M106.793 31.9972C106.793 31.9972 109.154 19.4986 118.255 16.7837C127.355 14.0688 137.022 22.2648 146.305 24.2022C155.589 26.1396 168.852 17.2591 180.977 21.9569C193.102 26.6547 193.192 43.9245 197.824 47.7943C202.456 51.6642 211.747 53.4568 221.319 58.0209C230.892 62.5849 226.163 76.8455 226.726 90.513C227.29 104.18 230.98 109.742 241.335 115.653C251.69 121.564 242.512 136.607 238.139 144.067C233.767 151.527 238.14 152.192 245.277 159.82C252.413 167.448 245.325 183.326 235.492 186.438C225.518 189.542 221.571 197.025 224.243 205.725C226.916 214.425 225.565 232.054 214.337 234.658C203.109 237.261 194.899 228.416 187.756 237.182C180.621 245.803 174.445 249.687 167.469 247.145C160.5 244.459 152.36 231.555 148.154 235.832C143.948 240.109 111.968 256.133 104.383 248.917C96.7979 241.701 94.4364 227.068 85.432 230.659C76.4276 234.249 71.3431 236.304 66.1257 227.326C60.9084 218.347 60.2774 214.107 51.7159 214.674C43.1544 215.24 37.1696 204.626 38.5664 194.253C39.9632 183.88 45.681 183.309 38.7339 172.064C31.7869 160.818 37.6934 148.506 45.1629 141.643C52.6324 134.78 50.6736 120.604 44.3347 114.033C37.9958 107.463 35.4524 96.3029 42.5192 88.9838C49.586 81.6647 56.7219 81.1682 57.0783 74.3679C57.4347 67.5676 53.3419 61.5497 60.9783 51.5039C68.6146 41.458 85.771 45.1137 91.0861 44.0865C96.4164 42.7699 106.793 31.9972 106.793 31.9972Z" fill="white"/>
<path d="M246.196 158.562C244.585 156.737 243.093 155.353 241.728 154.266C237.388 150.266 236.441 149.346 239.251 144.56L239.714 143.859C243.152 137.946 249.072 128.1 247.182 120.747C246.475 117.953 244.738 115.831 242.119 114.243C231.906 108.34 228.776 102.953 228.167 90.1532C227.939 86.369 228.278 82.6146 228.467 78.9974C229.117 69.3108 229.595 60.1955 221.962 56.6037C217.941 54.6519 213.889 53.2789 210.404 51.9356C205.517 50.2286 201.339 48.5588 198.743 46.5367C197.378 45.4495 196.261 42.3442 195.151 39.0942C192.806 32.2974 189.835 23.8719 181.47 20.6769C174.083 17.8234 166.163 19.7296 159.399 21.2612C154.644 22.4629 150.179 23.5347 146.523 22.7627C143.284 22.1577 139.949 20.6771 136.479 19.0445C130.361 16.4025 123.975 13.4563 117.763 15.307C108.954 17.8921 105.959 28.9066 105.412 31.1993C102.402 34.3785 94.6335 41.5158 90.7516 42.3279C89.602 42.5578 87.4673 42.591 85.0566 42.4647C77.3838 42.3528 65.8747 42.1848 59.7626 50.2794C53.8075 58.092 54.5044 63.7869 55.2392 68.7582C55.4318 70.5094 55.7663 72.2679 55.6753 74.0041C55.5085 77.1872 53.5815 78.6822 49.6087 81.2306C47.2488 82.8479 44.3065 84.7249 41.4529 87.6221C33.6315 95.7722 36.5701 107.533 43.1623 114.697C46.533 118.211 48.4986 124.117 48.3447 129.768C48.1172 134.108 46.6362 137.948 43.9548 140.274C35.4396 148.097 30.0699 161.019 37.2854 172.568C41.6163 179.469 40.7859 181.747 39.1555 185.724C38.3403 187.712 37.353 190.272 36.8874 193.73C35.9714 200.356 37.8915 207.13 41.784 211.542C44.4685 214.584 47.9454 216.072 51.5134 215.824C57.6414 215.564 58.9533 217.664 62.1952 223.638C62.8436 224.832 63.6186 226.324 64.5354 227.823C70.4163 237.706 76.5087 235.414 85.6625 231.686C90.1646 229.891 92.5352 233.497 96.3215 239.935C98.2742 243.374 100.361 246.965 103.21 249.581C104.702 250.965 106.799 251.655 109.209 251.781C121.547 252.428 144.209 240.558 148.526 236.867C151.965 239.079 155.278 240.993 157.24 241.531L158.874 242.923C157.306 242.986 155.754 242.759 154.217 242.243C153.098 241.894 152.581 243.608 153.7 243.957C155.797 244.647 158.484 244.933 160.925 244.481C162.827 246.177 164.744 247.583 166.699 248.266C175.765 251.642 183.249 244.49 188.569 237.95C192.215 233.498 196.014 234.278 201.357 235.428C205.155 236.208 209.513 237.162 214.411 235.967C218.151 235.148 221.116 232.837 223.306 229.034C227.223 222.13 227.351 211.546 225.408 205.206C224.329 201.377 224.511 197.904 225.946 194.933C227.68 191.687 231.086 189.109 235.707 187.755C241.635 185.889 246.94 179.638 248.879 172.486C250.301 167.047 249.29 161.916 246.196 158.562ZM162.749 196.118C163.933 189.797 163.087 184.239 162.023 180.121C166.721 185.445 171.71 190.64 166.636 197.918C164.327 201.279 160.189 204.254 157.447 207.737C159.584 204.948 161.759 201.435 162.749 196.118ZM154.349 218.021C155.278 221.987 158.404 224.762 161.253 227.378C163.147 229.218 166.973 232.176 167.113 234.939C167.341 238.724 165.369 241.087 162.756 242.11L161.122 240.719C163.31 239.673 164.409 237.699 162.084 233.225C158.849 227.107 155.73 226.944 153.161 218.974C151.955 214.849 153.794 212.334 156.379 209.132C154.675 211.8 153.68 214.504 154.349 218.021ZM186.533 236.102C185.621 237.215 184.867 238.046 183.963 239.014C185.348 234.299 184.068 228.864 184.349 223.511C184.963 211.791 196.33 211.951 199.809 202.558C203.609 192.456 190.352 184.943 199.943 175.58C200.268 180.239 200.316 184.739 202.844 188.064C208.16 195.161 205.386 210.105 199.8 213.584C194.214 217.064 190.77 220.365 192.133 224.209C193.139 226.728 191.957 230.293 191.141 232.282C189.536 233.068 188.05 234.296 186.533 236.102ZM222.457 144.841C224.511 151.768 232.083 156.517 232.689 163.948C233.457 173.709 221.551 175.696 216.277 181.368C211.316 186.477 211.669 193.314 213.321 199.784C214.846 205.958 217.655 212.053 216.037 218.497C214.232 225.802 207.652 231.986 200.382 232.331C198.971 232.112 197.702 231.9 196.426 231.833C200.518 229.726 205.663 226.514 207.592 222.262C210.98 214.605 213.846 206.05 210.943 196.323C208.04 186.595 213.539 179.339 218.01 169.998C222.481 160.656 220.075 155.017 221.642 146.829C221.844 145.679 222.039 144.674 222.234 143.669C222.219 143.958 222.338 144.399 222.457 144.841ZM246.073 171.758C244.471 177.913 239.921 183.333 234.859 184.954C229.506 186.704 225.51 189.687 223.454 193.641C221.555 197.314 221.328 201.655 222.66 206.077C224.35 211.824 224.126 221.533 220.821 227.598C219.095 230.7 216.727 232.462 213.846 233.181C210.68 233.886 207.702 233.73 204.889 233.147C209.667 231.511 213.693 227.95 216.078 223.142C221.79 211.835 212.916 202.084 213.94 190.676C215.025 178.111 229.624 179.021 233.849 168.942C236.616 162.268 231.8 156.502 228.229 151.382C223.465 144.604 223.32 139.228 226.424 131.556C227.905 127.716 229.087 124.151 228.157 120.185C228.271 118.015 227.959 115.822 226.946 113.448C225.814 110.632 221.319 104.158 217.076 98.277C216.392 95.0493 216.425 91.7141 216.771 87.815C217.697 78.2879 217.57 69.8663 209.962 63.0839C201.818 55.693 190.481 54.9538 180.137 54.2666C179.002 54.2071 178.911 55.9434 180.046 56.0028C191.099 56.7272 204.13 57.7003 211.594 67.2318C218.125 75.5537 214.348 85.2215 214.564 94.6633C211.246 90.1369 208.585 86.6605 208.585 86.6605L196.356 81.2318L191.091 84.0027C196.833 91.1225 190.769 122.723 187.176 134.287C183.592 145.706 186.953 152.121 194.925 160.083C198.572 163.756 199.464 168.445 199.788 173.105C198.153 174.47 196.659 175.843 195.567 177.672C191.643 184.72 197.625 189.966 198.545 196.834C199.873 206.769 188.116 208.619 184.184 215.812C179.609 224.423 187.108 235.987 179.056 243.11L178.907 243.247C175.068 245.948 171.619 246.637 167.985 245.431C169.986 245.246 171.875 244.474 173.66 242.972C176.632 240.516 178.688 236.562 178.617 232.496C178.649 229.16 177.084 226.467 175.519 223.773C174.394 220.813 173.224 218.72 172.599 217.091C172.606 216.947 172.472 216.795 172.487 216.505C171.063 205.694 188.804 206.334 190.216 195.672C190.892 190.919 187.984 186.705 185.479 182.946C179.426 173.634 177.845 163.105 185.854 154.094C186.608 153.263 185.4 151.894 184.646 152.725C182.233 155.355 180.506 158.457 179.339 161.732C179.392 160.719 179.296 159.844 179.357 158.686C179.592 135.195 168.864 139.13 163.17 155.517C158.464 169.343 171.99 177.161 175.341 186.477C178.692 195.793 170.508 200.007 167.211 205.928C163.915 211.849 161.307 215.484 166.423 220.975C171.404 226.314 178.012 233.189 169.562 242.467C167.83 242.957 166.114 243.157 164.285 242.771C167.354 241.191 169.349 238.394 168.442 233.994C167.52 229.883 163.82 227.223 160.979 224.462C154.073 217.862 154.809 211.952 161.129 205.319C166.694 199.517 173.559 193.348 168.46 184.811C164.286 177.628 157.363 174.073 155.698 165.136C153.588 153.854 159.262 143.27 169.058 138.125C170.081 137.598 169.314 135.962 168.291 136.489C159.218 141.382 153.046 150.634 153.477 161.393C153.705 165.177 154.65 168.853 156.185 172.126L137.947 167.398L117.049 175.443C114.622 186.487 109.869 184.932 112.617 192.185C115.365 199.438 135.375 227.328 135.375 227.328C135.375 227.328 140.298 231.068 145.52 234.533C140.173 238.896 120.632 248.173 110.1 248.346C103.506 243.938 109.278 231.473 105.216 224.877C102.473 220.235 97.4969 217.508 92.6094 215.801C83.8121 212.729 73.5185 213.785 65.873 207.726C59.3241 202.45 58.8145 195.894 62.8806 188.853C64.4427 186.179 66.1012 184.379 66.5516 181.211C66.7465 180.206 66.7996 179.193 66.7184 178.028C67.0855 176.451 66.8625 175.279 66.2141 174.084C65.3883 170.849 63.9877 167.729 62.7288 164.616C63.0473 158.539 64.8392 148.768 67.1452 140.038C69.4824 138.855 71.9462 137.969 74.291 136.641C85.8577 130.283 86.0033 116.652 85.1994 104.858C85.1182 103.694 83.4165 103.604 83.4977 104.769C84.162 113.799 84.705 125.144 77.8103 131.892C74.9643 134.645 71.1939 136.043 67.6996 137.601C69.6462 130.304 71.8233 124.034 73.1981 122.22L74.9847 109.836C74.9847 109.836 60.9617 116.936 59.1395 127.287C57.4667 137.5 44.3173 144.21 41.2135 151.882C38.1097 159.554 45.2259 164.86 48.012 171.389C50.6563 177.912 46.0252 182.167 43.6358 192.487C41.2539 202.664 51.7173 203.792 57.5443 206.564C63.3713 209.336 67.6499 225.374 74.7933 224.733C81.9292 224.237 91.2452 222.839 97.1814 228.953C100.962 232.778 103.548 237.702 104.949 240.822C104.954 243.434 105.534 245.931 107.138 247.901C106.011 247.697 105.183 247.218 104.504 246.602C101.931 244.146 99.9706 240.851 98.1521 237.564C95.275 232.771 92.4131 227.688 87.7334 227.442C86.599 227.383 85.4493 227.613 84.1427 228.125C74.9966 231.708 71.2186 233.251 66.5078 225.46C65.591 223.961 64.8084 222.614 64.16 221.419C60.7839 215.294 58.697 211.702 50.8521 212.162C47.4335 212.273 44.972 210.403 43.3537 208.722C39.9905 205.064 38.3161 199.028 39.1791 193.415C39.6295 190.246 40.4599 187.968 41.2675 186.125C42.913 181.858 44.2219 178.59 39.2503 170.35C32.9515 160.299 37.82 148.802 45.4389 141.802C48.7254 138.783 50.5204 134.379 50.6516 129.163C50.8434 122.789 48.4903 116.137 44.7244 112.023C38.93 105.916 36.3334 95.7687 42.9445 89.0061C45.6487 86.2461 48.158 84.4915 50.5103 83.0189C54.3414 80.463 57.5825 78.3115 57.8327 73.5369C57.9244 71.6329 57.7856 69.7252 57.4194 67.8569C56.8264 62.893 56.2106 58.3631 61.4036 51.5261C66.746 44.5519 77.4043 44.6752 84.5098 44.7574C87.2117 44.7539 89.1971 44.858 90.7797 44.5057C96.386 43.3486 106.149 33.4142 107.203 32.3088L107.502 32.0342L107.524 31.6002C107.532 31.4555 109.848 19.825 117.933 17.4922C123.137 15.8788 128.695 18.3464 134.672 20.9809C138.149 22.4689 141.76 24.109 145.275 24.8735C149.498 25.6752 154.246 24.6183 159.293 23.2869C166.064 21.6105 173.119 19.9491 179.67 22.4687C186.781 25.1627 189.499 32.9946 191.733 39.2052C193.096 43.0488 194.205 46.2988 196.249 48.0019C199.105 50.4729 203.575 52.0129 208.738 53.8795C212.223 55.2228 216.133 56.5883 220.012 58.5327C225.974 61.4566 225.445 68.8282 224.952 78.2329C224.755 81.9947 224.409 85.8938 224.629 89.8227C225.185 103.635 228.845 109.775 240.02 116.309C241.953 117.426 243.295 118.947 243.756 121.003C245.423 127.184 239.959 136.473 236.685 141.959L236.222 142.661C232.171 149.412 234.886 151.876 239.219 156.02C240.435 157.245 241.934 158.484 243.545 160.309C247.467 164.142 246.784 169.039 246.073 171.758ZM103.089 124.367L99.6327 125.201C98.7507 117.611 96.0329 109.779 93.2619 102.96C92.8896 101.925 91.2842 102.711 91.6565 103.746C94.4199 110.71 97.1681 117.963 97.9083 125.546L89.4127 127.567C89.4127 127.567 76.8541 141.998 76.3612 151.403C76.02 157.914 77.7649 159.891 82.8602 163.06C83.1059 163.798 83.2173 164.384 83.6049 165.13C86.4213 171.081 95.8314 173.315 97.64 179.503C98.8458 183.629 96.7521 188.307 93.6528 190.466C92.9134 191.008 92.1816 191.404 91.4423 191.946C90.1129 192.892 88.776 193.983 87.9836 195.537C86.3835 198.935 87.6196 202.482 90.0508 204.931C92.3478 207.227 95.2802 208.252 98.0557 209.558C102.771 211.836 106.598 214.793 109.191 219.572C113.484 227.196 113.715 236.348 109.753 244.12C109.275 245.111 110.64 246.198 111.267 245.07C116.485 235.043 115.01 222.488 107.486 214.114C105.607 211.985 103.422 210.274 100.93 208.983C99.4078 208.178 97.8707 207.662 96.3411 207.001C94.9534 206.348 93.715 205.558 92.3349 204.76C88.66 198.909 89.0217 194.721 93.5391 192.636C97.0789 190.21 100.753 187.936 100.444 182.987C100.149 177.749 95.3605 174.161 91.6758 171.211C89.2218 169.197 86.9096 167.189 85.6129 164.8C87.4033 165.909 89.4774 167.034 91.9541 168.614C104.338 176.518 105.409 180.491 103.224 186.905C101.04 193.32 97.0539 193.401 102.073 198.016C105.467 201.096 111.95 204.918 115.161 211.47C115.392 212.497 115.481 213.518 115.853 214.553C116.068 215.87 116.56 217.346 117.066 218.534C117.155 219.554 117.102 220.567 117.049 221.58C117.049 221.58 117.497 221.168 118.11 220.329C119.675 223.023 122.136 224.893 125.547 224.927C126.682 224.986 126.78 223.105 125.638 223.19C123.438 221.769 121.245 220.203 119.052 218.638L119.059 218.493C120.031 216.223 120.505 212.62 117.313 208.391C117.053 207.942 116.784 207.638 116.381 207.181C115.913 205.271 115.295 203.497 114.109 201.694C112.79 199.739 110.291 198.592 109.113 196.644C107.145 193.494 106.975 191.309 107.798 189.176C109.942 186.242 114.526 185.611 115.196 178.247C115.942 169.436 114.145 149.465 114.145 149.465L103.089 124.367Z" fill="black"/>
<path d="M118.185 144.24C118.185 171.481 122.097 217.125 106.448 228.282C90.7985 239.44 60.3695 248.423 53.2694 263.638C46.1693 278.852 48.053 306.238 48.053 306.238H227.874C227.874 306.238 228.743 272.767 221.788 262.189C212.225 247.554 180.492 236.542 168.9 229.007C157.163 221.472 153.106 182.349 153.106 143.806L118.185 144.24Z" fill="white"/>
<path d="M229.613 308.122H46.7488L46.3141 306.818C46.1692 306.093 44.4304 278.273 51.5305 262.913C56.4571 252.336 71.2369 244.946 85.5821 237.701C92.972 234.078 99.9272 230.456 105.288 226.833C117.75 218.139 117.025 183.653 116.446 158.585C116.301 153.514 116.301 148.732 116.301 144.385V142.501L154.989 141.922V143.805C154.989 190.173 160.495 221.327 169.914 227.413C173.391 229.731 178.608 232.194 184.694 235.237C198.749 242.048 216.427 250.597 223.382 261.319C230.627 272.332 229.758 306.093 229.758 306.528L229.613 308.122ZM49.7917 304.355H225.99C225.845 300.877 225.121 270.738 220.194 263.203C213.819 253.495 196.72 245.091 183.1 238.57C176.869 235.527 171.508 232.919 167.885 230.601C153.685 221.472 151.367 174.379 151.222 145.689L120.068 146.269C120.068 150.036 120.213 154.238 120.213 158.585C120.793 185.971 121.517 220.023 107.462 230.021C101.956 233.933 94.8556 237.411 87.3208 241.178C73.5553 248.133 59.2102 255.234 55.0081 264.507C50.2264 274.505 49.6468 302.036 49.7917 304.355Z" fill="black"/>
<path d="M104.129 240.889C111.084 244.221 119.199 246.54 126.879 245.091C127.458 244.946 127.458 244.076 126.879 243.931C119.489 242.627 112.099 241.903 104.854 239.295C103.984 239.005 103.26 240.454 104.129 240.889ZM149.773 244.366C153.25 244.801 156.873 243.787 160.061 242.627C163.104 241.468 166.291 240.164 168.465 237.701C169.189 236.976 168.32 235.962 167.451 236.397C164.408 237.701 161.799 239.729 158.612 240.744C155.714 241.758 152.671 242.193 149.628 242.917C148.758 243.062 149.048 244.221 149.773 244.366Z" fill="black"/>
<path d="M44.1551 308.499C44.1551 308.499 42.0975 276.795 47.937 265.101C53.7765 253.408 59.6304 247.221 101.579 228.311C101.579 228.311 111.2 240.686 135.616 241.033C160.032 241.381 171.725 228.311 171.725 228.311C171.725 228.311 195.793 239.309 201.647 243.091C207.501 246.873 219.18 253.06 225.034 260.972C230.888 268.883 229.787 308.499 229.787 308.499H44.1551Z" fill="white"/>
<path d="M226.193 260.117C221.237 253.408 212.471 248.047 206.066 244.134C204.719 243.308 203.473 242.555 202.429 241.874C196.561 238.077 173.319 227.442 172.334 226.993C171.754 226.732 171.073 226.877 170.653 227.34C170.537 227.471 159.075 239.903 135.645 239.584C112.302 239.251 102.811 227.529 102.724 227.413C102.318 226.891 101.594 226.703 100.985 226.978C58.9784 245.916 52.7187 252.292 46.6474 264.449C40.6486 276.447 42.6482 308.368 42.7351 308.789C42.88 309.455 43.4741 309.948 44.1552 309.948H229.787C230.555 309.948 231.192 309.354 231.236 308.586C231.279 307.832 232.293 268.347 226.193 260.117ZM223.875 261.841C223.933 261.928 223.991 262.029 224.063 262.116C222.6 261.377 221.02 260.841 219.441 260.392C220.687 259.537 221.556 259.32 221.585 259.32L221.542 259.102C222.382 259.972 223.179 260.899 223.875 261.841ZM204.559 246.612C209.095 249.38 214.847 252.901 219.412 257.03C205.313 267.507 207.255 285.431 206.82 307.05H69.5706C69.4692 294.907 70.1212 274.52 61.7605 258.03C61.9779 257.987 61.9634 257.624 61.746 257.595L61.4562 257.552C60.2246 255.639 59.0943 254.451 58.1815 253.712C64.3397 248.264 74.6421 242.337 94.7253 233.035C97.2465 236.527 106.636 246.684 131.965 249.191C134.124 249.409 136.21 249.51 138.21 249.51C161.684 249.51 175.014 235.933 177.825 232.745C185.375 236.281 197.097 241.888 200.865 244.323C201.922 245.004 203.183 245.772 204.559 246.612ZM48.9513 266.347C53.4722 268.506 58.5582 270.318 63.5718 270.39C63.6152 270.39 63.6442 270.361 63.6732 270.347C64.0934 271.81 64.4991 273.404 64.8759 275.157C58.6741 274.071 53.1245 272.926 47.314 270.318C47.7632 269.028 48.3138 267.709 48.9513 266.347ZM54.9647 256.9C55.979 257.335 57.0368 257.682 58.1235 257.9C59.1813 259.276 60.4274 261.363 61.6881 264.478C58.2829 263.58 54.9212 262.71 51.632 261.406C52.5883 259.856 53.6751 258.378 54.9647 256.9ZM57.1962 256.784C56.631 256.654 56.0659 256.509 55.5008 256.32C55.6747 256.132 55.8631 255.929 56.0514 255.741C56.3557 255.973 56.7325 256.306 57.1962 256.784ZM107.303 234.962C106.708 235.527 106.216 236.237 105.709 236.875C105.404 237.266 105.1 237.657 104.81 238.063C103.97 237.541 103.202 237.02 102.506 236.512C103.39 235.498 104.376 234.571 105.39 233.687C105.984 234.093 106.607 234.513 107.303 234.962ZM109.563 236.295C108.839 237.367 108.201 238.498 107.563 239.613C106.723 239.179 105.955 238.744 105.231 238.295C105.593 237.875 105.955 237.469 106.317 237.034C106.81 236.454 107.346 235.875 107.752 235.223C108.317 235.585 108.925 235.947 109.563 236.295ZM113.403 238.135C112.606 239.15 111.896 240.236 111.171 241.309C110.085 240.859 109.085 240.381 108.143 239.903C108.853 238.831 109.563 237.73 110.186 236.599C111.186 237.136 112.244 237.643 113.403 238.135ZM116.17 239.222C115.504 240.28 114.953 241.439 114.417 242.555C113.49 242.236 112.62 241.903 111.78 241.555C112.562 240.526 113.388 239.497 114.098 238.425C114.75 238.686 115.446 238.961 116.17 239.222ZM127.878 245.757C128.284 244.54 128.719 243.308 128.98 242.062C129.646 242.135 130.342 242.207 131.037 242.251C130.603 243.482 130.269 244.757 129.979 246.032C129.255 245.96 128.559 245.859 127.878 245.757ZM127.342 245.685C124.893 245.308 122.619 244.859 120.517 244.352C120.996 243.221 121.488 242.048 121.865 240.874C123.894 241.352 126.096 241.729 128.458 242.004C128.009 243.192 127.676 244.453 127.342 245.685ZM119.894 244.192C119.097 243.989 118.315 243.772 117.562 243.555C118.141 242.453 118.721 241.323 119.155 240.164C119.778 240.338 120.431 240.512 121.097 240.686C120.633 241.83 120.257 243.033 119.894 244.192ZM116.953 243.381C116.272 243.178 115.605 242.961 114.968 242.743C115.591 241.656 116.228 240.541 116.707 239.396C117.301 239.599 117.895 239.802 118.532 239.99C117.924 241.062 117.417 242.222 116.953 243.381ZM162.22 236.773C162.814 237.802 163.408 238.845 164.045 239.845C162.915 240.483 161.698 241.12 160.408 241.714C159.901 240.613 159.351 239.512 158.815 238.425C158.786 238.382 158.757 238.367 158.728 238.338C159.914 237.867 161.079 237.345 162.22 236.773ZM165.784 234.788C166.19 235.266 166.596 235.759 167.001 236.237C167.335 236.614 167.653 237.005 167.987 237.382C166.958 238.092 165.828 238.816 164.611 239.526C164.016 238.498 163.379 237.512 162.727 236.512C163.843 235.933 164.857 235.353 165.784 234.788ZM168.523 232.962C168.856 233.47 169.204 233.962 169.595 234.426C169.87 234.759 170.189 235.15 170.537 235.513C169.957 235.976 169.32 236.455 168.639 236.933C168.277 236.527 167.871 236.136 167.509 235.73L166.291 234.469C167.117 233.948 167.856 233.455 168.523 232.962ZM170.914 231.079C171.203 231.397 171.493 231.716 171.798 232.021C172.218 232.455 172.624 232.933 173.073 233.368C172.537 233.861 171.913 234.382 171.232 234.948C170.943 234.672 170.638 234.397 170.392 234.107C169.943 233.6 169.523 233.078 169.117 232.528C169.827 231.992 170.421 231.499 170.914 231.079ZM158.438 238.657C158.901 239.758 159.351 240.874 159.843 241.975C154.134 244.554 146.947 246.54 138.369 246.583C138.572 245.206 138.644 243.786 138.427 242.439C146.57 242.207 153.221 240.57 158.423 238.483C158.423 238.527 158.423 238.599 158.438 238.657ZM172.058 230.05C172.739 230.369 173.783 230.847 175.058 231.441C174.681 231.832 174.217 232.296 173.638 232.832C173.218 232.368 172.754 231.934 172.319 231.484C172.029 231.195 171.725 230.905 171.435 230.601C171.682 230.412 171.885 230.209 172.058 230.05ZM137.876 242.439C137.804 243.83 137.804 245.206 137.703 246.583C136.645 246.583 135.558 246.54 134.457 246.467C134.631 245.627 134.718 244.757 134.587 243.902C134.558 243.685 134.196 243.685 134.167 243.902C134.051 244.757 133.964 245.583 133.819 246.409C133.298 246.366 132.776 246.337 132.24 246.293C131.675 246.235 131.139 246.177 130.588 246.105C130.95 244.844 131.284 243.584 131.501 242.294C132.819 242.381 134.182 242.453 135.587 242.468C136.384 242.497 137.123 242.453 137.876 242.439ZM104.941 233.339C103.839 234.122 102.898 235.092 102.043 236.15C100.985 235.353 100.101 234.585 99.391 233.89C100.463 233.093 101.579 232.281 102.492 231.325C103.144 231.919 103.955 232.6 104.941 233.339ZM101.202 230.064C101.449 230.325 101.782 230.659 102.159 231.006C101.028 231.716 99.9996 232.615 98.9853 233.499C98.3333 232.832 97.8116 232.252 97.4349 231.774C98.6665 231.224 99.9127 230.659 101.202 230.064ZM51.2842 261.971C54.7039 263.478 58.2829 264.782 61.9923 265.275C62.514 266.637 63.0356 268.173 63.5428 269.912C58.6162 268.68 53.9069 267.753 49.1977 265.811C49.2122 265.797 49.2122 265.768 49.2267 265.753C49.8932 264.42 50.5742 263.174 51.2842 261.971ZM45.2709 281.46C49.0093 283.373 53.139 284.924 57.2831 285.271C57.5584 285.3 57.6019 284.88 57.3411 284.808C53.1824 283.605 49.2122 282.562 45.2854 280.794C45.3433 279.504 45.4737 278.026 45.7491 276.418C51.69 279.736 58.819 282.562 65.6583 282.504C65.8612 282.504 65.9046 282.199 65.7018 282.141C58.7321 280.359 52.371 279.026 45.865 275.78C46.1403 274.273 46.546 272.651 47.0966 270.955C52.4724 273.853 58.8625 275.94 65.0063 275.809C67.8463 288.763 66.832 302.572 66.6291 307.064H45.4158C44.7782 295.994 45.2419 283.127 45.2709 281.46ZM209.602 307.05C209.732 305.63 208.95 284.141 210.37 279.504C214.485 281.359 218.963 282.62 223.425 283.011C223.73 283.04 223.773 282.562 223.498 282.489C219.078 281.345 214.804 280.127 210.515 278.664C210.732 277.374 210.979 276.172 211.239 275.041C214.529 276.215 217.832 277.215 221.281 277.925C221.585 277.983 221.716 277.548 221.411 277.461C218.05 276.519 214.702 275.52 211.413 274.375C211.732 273.1 212.094 271.926 212.457 270.854C216.18 272.114 219.948 273.361 223.773 274.23C224.092 274.302 224.193 273.868 223.904 273.752C220.267 272.317 216.47 271.231 212.703 270.173C213.094 269.144 213.5 268.202 213.906 267.347C217.282 268.521 220.716 269.738 224.179 270.492C224.556 270.578 224.686 270.071 224.338 269.926C221.107 268.593 217.644 267.637 214.239 266.695C214.804 265.623 215.384 264.696 215.949 263.913C218.861 264.956 221.817 266.188 224.816 266.869C225.135 266.941 225.382 266.463 225.048 266.304C222.295 265.043 219.281 264.232 216.383 263.319C217.18 262.319 217.948 261.551 218.644 260.972C220.774 261.653 222.773 262.565 224.831 263.406C229.902 272.882 228.497 303.137 228.396 307.05" fill="black"/>
<path d="M93.4939 103.404C93.2272 102.955 89.0448 96.9318 85.4646 93.2617C81.8843 89.5917 80.7267 89.5311 78.8766 91.6106C76.8817 93.6825 73.9901 104.559 74.3187 109.364C74.6396 114.314 78.8682 122.226 80.9559 126.688C83.1883 131.158 85.2229 136.634 87.8579 136.191C90.6376 135.757 94.5736 129.869 96.6898 125.482C98.6613 121.087 98.3846 109.755 93.4939 103.404Z" fill="white"/>
<path d="M80.6671 129.43C80.2709 128.684 80.0194 127.945 79.6157 127.344L78.8233 125.851C76.4537 121.229 73.0479 114.231 72.7118 109.57C72.3984 104.475 75.3127 93.165 77.6198 90.6742C78.541 89.7068 79.4548 88.884 80.9094 88.8152C82.6534 88.7615 84.1844 90.0025 86.3859 92.2944C88.5949 94.4415 91.1774 97.769 94.2856 102.14L94.5523 102.589C99.8468 109.541 100.093 121.452 97.9618 126.129C96.1426 130.386 91.7269 137.12 88.0715 137.654L87.348 137.616C84.4463 137.609 82.6253 133.596 80.6671 129.43ZM92.4355 104.219C92.4355 104.219 92.2983 104.067 92.1688 103.77C89.1977 99.5516 86.6152 96.2241 84.5433 94.2292C82.8903 92.5465 81.6335 91.61 81.1994 91.5873C80.91 91.5721 80.6054 91.8463 79.9887 92.5395C78.4507 94.2001 75.5894 104.497 75.7733 109.295C75.995 113.37 79.2713 120.071 81.5037 124.541L82.2961 126.033C82.6923 126.779 82.9438 127.518 83.3476 128.12C84.521 130.648 86.6163 134.966 87.789 134.737C89.5406 134.538 93.2789 129.656 95.4178 124.835C97.2219 120.866 96.7702 110.105 92.4355 104.219Z" fill="black"/>
<path d="M77.3731 111.991C77.1135 108.64 77.2411 100.666 79.2588 98.1601C82.6621 94.1306 87.4555 107.876 88.5379 112.141C88.5303 112.285 88.6674 112.438 88.6599 112.582C88.9265 113.032 88.4621 113.588 88.0356 113.42C87.4719 113.1 86.7787 112.484 86.2151 112.164C84.6613 111.357 83.862 112.766 84.1975 114.67C84.6398 117.305 86.0034 118.973 87.0548 121.059C87.1844 121.356 87.0245 121.638 86.7427 121.478C84.4957 120.054 82.0194 114.701 82.7574 111.693C83.3432 108.821 85.6433 109.232 87.3038 110.77C86.4199 108.257 85.3836 105.881 84.0503 103.635C83.2504 102.287 82.4656 100.65 81.0337 100.285C79.3125 99.9041 79.564 100.643 79.1608 102.798C77.6392 109.683 77.938 117.824 81.6787 123.969C81.8159 124.122 81.6636 124.259 81.5264 124.107C79.2409 120.65 77.7017 116.796 77.3731 111.991Z" fill="black"/>
<path d="M191.023 108.515C191.335 108.097 196.124 102.544 200.068 99.2679C204.012 95.9922 205.17 96.0529 206.793 98.3144C208.415 100.576 210.299 111.702 209.47 116.447C208.633 121.336 203.601 128.763 201.058 132.983C198.371 137.195 195.775 142.427 193.2 141.712C190.626 140.997 187.182 134.722 185.536 130.138C184.035 125.561 185.495 114.32 191.023 108.515Z" fill="white"/>
<path d="M193.407 143.319L192.683 143.281C189.104 142.368 185.568 135.073 184.052 130.786C182.428 125.767 183.911 114.092 189.903 107.731L190.215 107.312C193.763 103.29 196.679 100.251 199.101 98.3465C201.522 96.4421 203.175 95.3679 204.911 95.4589C206.35 95.6794 207.173 96.5931 207.988 97.6515C210.022 100.37 211.738 111.923 210.894 116.957C210.073 121.557 205.954 128.161 203.114 132.51L202.17 133.912C201.698 134.612 201.379 135.176 200.907 135.877C198.676 139.677 196.445 143.478 193.407 143.319ZM191.99 109.437C187.064 114.837 185.497 125.348 186.869 129.627C188.493 134.646 191.7 139.892 193.421 140.273C194.564 140.623 197.099 136.548 198.53 134.156C199.002 133.455 199.329 132.747 199.794 132.191L200.738 130.789C203.425 126.577 207.384 120.255 208.031 116.226C208.86 111.482 206.946 100.934 205.59 99.1219C205.041 98.5128 204.775 98.0635 204.485 98.0483C204.051 98.0256 202.711 98.6808 200.883 100.326C198.607 102.238 195.843 105.141 192.302 109.018C192.287 109.307 192.135 109.444 191.99 109.437Z" fill="black"/>
<path d="M206.158 118.74C206.766 115.435 207.473 107.491 205.728 104.788C202.765 100.425 196.561 113.594 195.039 117.722C195.031 117.867 194.879 118.004 194.871 118.149C194.559 118.567 194.963 119.169 195.404 119.047C195.998 118.788 196.752 118.247 197.346 117.988C198.976 117.348 199.623 118.833 199.091 120.691C198.375 123.266 196.845 124.781 195.581 126.747C195.421 127.028 195.551 127.325 195.848 127.196C198.231 126.015 201.254 120.95 200.834 117.881C200.552 114.964 198.221 115.132 196.409 116.488C197.551 114.081 198.83 111.827 200.391 109.732C201.327 108.475 202.279 106.929 203.741 106.715C205.492 106.517 205.165 107.225 205.341 109.411C206.134 116.417 204.986 124.483 200.624 130.203C200.471 130.34 200.609 130.492 200.761 130.355C203.395 127.156 205.329 123.485 206.158 118.74Z" fill="black"/>
<path d="M198.147 76.5358C196.13 60.761 181.365 35.9031 147.473 34.1269C113.581 32.3507 101.273 50.1314 95.4476 63.6091C90.5792 75.1058 89.5782 94.2045 89.5782 94.2045C89.5782 94.2045 86.8962 142.667 89.4852 152.959C92.0742 163.25 106.1 180.525 111.537 185.308C116.974 190.09 150.582 191.851 157.427 191.485C164.264 191.263 188.645 168.311 190.89 160.74C193.136 153.168 198.636 99.7749 198.636 99.7749C198.636 99.7749 199.549 87.7807 198.147 76.5358Z" fill="white"/>
<path d="M146.103 193.213C133.482 192.551 114.801 190.847 110.319 186.84C104.747 181.905 90.3194 164.174 87.7532 153.448C85.1718 143.012 87.6286 96.1335 87.7348 94.1078C87.7727 93.3844 88.766 74.4304 93.7838 62.7965C103.184 40.801 120.77 30.8413 147.571 32.2459C163.028 33.056 176.384 38.6888 186.094 48.7733C193.514 56.4164 198.805 66.7045 200.006 76.343C201.407 87.5879 200.494 99.5821 200.464 100.161C200.209 102.324 194.949 153.843 192.696 161.56C190.294 169.413 165.434 193.355 157.597 193.67C156.037 193.588 151.633 193.502 146.103 193.213ZM147.374 36.0078C122.274 34.6924 105.861 43.9881 97.119 64.277C92.4151 75.3471 91.4293 94.1564 91.4218 94.3011C91.399 94.7351 88.7473 142.619 91.3591 152.477C93.829 162.327 107.586 179.297 112.889 183.928C117.379 187.79 148.83 190.019 157.518 189.749C159.653 189.715 165.97 185.839 174.792 177.596C182.411 170.596 188.328 163.507 189.204 160.361C190.933 154.503 194.971 118.154 196.926 99.8303C196.934 99.6857 197.847 87.6915 196.423 76.8806C195.318 68.1176 190.556 58.5827 183.531 51.5407C174.5 42.0721 161.98 36.7733 147.374 36.0078Z" fill="black"/>
<path d="M160.648 163.991C158.98 164.542 157.308 164.599 155.632 164.454C153.016 162.88 150.228 161.254 147.177 160.775C143.939 160.271 140.764 162.151 137.654 161.146C135.342 160.401 133.64 159.383 131.146 159.906C127.405 160.682 124.066 163.757 120.113 161.939C120 161.89 119.912 161.9 119.838 161.939C119.54 161.808 119.257 161.677 118.96 161.516C118.495 161.259 118.053 161.947 118.504 162.203C119.659 162.859 120.831 163.196 122.026 163.374C122.04 163.39 122.025 163.403 122.053 163.419C131.306 172.639 145.943 172.985 156.269 165.314C157.773 165.407 159.287 165.313 160.809 164.797C161.325 164.636 161.15 163.829 160.648 163.991ZM136.458 161.548C138.775 162.453 140.263 162.313 142.653 161.829C146.716 160.997 150.115 162.307 153.485 164.181C149.644 163.545 145.83 162.387 141.999 164.073C140.454 164.746 140.212 164.937 138.245 164.819C136.234 164.699 136.132 164.433 134.636 163.643C133.661 163.143 132.69 162.831 131.611 162.658C129.798 162.374 127.991 162.526 126.2 162.635C129.954 161.323 132.405 159.972 136.458 161.548ZM123.37 163.488C125.048 163.576 126.769 163.405 128.557 163.354C131.434 163.273 133.336 164.069 135.807 165.373C136.796 165.89 137.602 166.295 138.752 166.224C140.645 166.091 142.259 164.638 144.054 164.166C146.438 163.522 148.95 164.06 151.304 164.532C152.553 164.786 153.788 165.039 155.013 165.19C145.347 171.881 132.104 171.535 123.37 163.488Z" fill="black"/>
<path d="M115.962 109.37C119.145 109.537 121.476 112.126 121.309 115.309C121.143 118.493 118.409 120.816 115.37 120.657C112.332 120.497 109.719 117.749 109.878 114.71C110.037 111.671 112.778 109.203 115.962 109.37Z" fill="black"/>
<path d="M110.906 111.717C110.259 112.989 110.175 114.58 110.541 115.906C110.907 117.231 111.57 118.426 112.697 119.066C113.824 119.705 115.264 119.926 116.436 119.697C117.754 119.476 118.805 118.805 119.589 117.686C120.228 116.558 120.586 115.271 120.365 113.954C120.251 113.367 119.991 112.773 119.732 112.179C119.321 111.722 118.917 111.121 118.354 110.801C117.79 110.481 117.226 110.162 116.51 109.979C115.939 109.804 115.216 109.766 114.492 109.728C114.347 109.721 114.203 109.713 113.906 109.843C113.761 109.835 113.609 109.972 113.464 109.965L112.573 110.353C111.827 110.749 111.362 111.305 110.906 111.717C111.225 111.153 111.69 110.597 112.299 110.049C112.603 109.774 112.9 109.645 113.342 109.523C113.494 109.386 113.639 109.393 113.929 109.408C114.218 109.424 114.226 109.279 114.515 109.294C115.246 109.187 116.122 109.088 116.838 109.271C117.554 109.453 118.27 109.636 118.97 110.108C119.679 110.435 120.372 111.052 120.776 111.654C121.324 112.263 121.568 113.146 121.819 113.885C122.17 115.499 121.79 117.221 120.846 118.622C120.374 119.323 119.765 119.871 119.018 120.267C118.272 120.664 117.526 121.06 116.65 121.159C115.043 121.365 113.314 121.129 112.065 120.048C111.364 119.576 110.816 118.967 110.42 118.221C110.023 117.474 109.772 116.736 109.665 116.005C109.596 114.55 109.969 112.974 110.906 111.717Z" fill="white"/>
<path d="M115.332 121.38C114.03 121.312 112.888 120.962 111.913 120.185C111.212 119.713 110.664 119.104 110.267 118.358C109.871 117.612 109.62 116.873 109.52 115.997C109.314 114.39 109.832 112.821 110.624 111.557C110.936 111.138 111.248 110.719 111.553 110.445L111.857 110.171L111.85 110.315L112.154 110.041C112.459 109.767 112.756 109.637 113.205 109.371C113.357 109.233 113.502 109.241 113.799 109.112C113.944 109.119 114.241 108.99 114.385 108.997C115.269 108.753 115.992 108.791 116.853 108.981C117.713 109.172 118.429 109.354 119.13 109.826C119.831 110.298 120.532 110.77 121.073 111.524C121.621 112.133 121.865 113.017 122.109 113.9C122.46 115.514 122.072 117.38 121.128 118.782C120.655 119.483 120.039 120.176 119.292 120.572C118.546 120.968 117.8 121.364 116.924 121.464L115.332 121.38ZM110.068 113.849C109.886 114.565 109.848 115.289 109.955 116.02C110.061 116.751 110.313 117.49 110.564 118.228C110.968 118.83 111.517 119.439 112.073 119.903C113.329 120.84 114.906 121.213 116.513 121.007C117.244 120.9 118.127 120.656 118.729 120.252C119.33 119.849 119.94 119.3 120.412 118.599C121.348 117.343 121.584 115.614 121.378 114.007C121.279 113.131 120.882 112.385 120.479 111.783C120.075 111.182 119.374 110.71 118.673 110.238C117.965 109.91 117.401 109.591 116.541 109.4C115.825 109.218 115.094 109.324 114.218 109.424C114.073 109.416 113.921 109.553 113.632 109.538C113.487 109.53 113.335 109.668 113.045 109.652C112.748 109.782 112.596 109.919 112.299 110.049C112.596 109.919 112.748 109.782 113.038 109.797C113.182 109.805 113.335 109.668 113.624 109.683C113.769 109.69 113.913 109.698 114.21 109.568C115.086 109.469 115.657 109.644 116.229 109.819C117.082 110.154 117.653 110.329 118.064 110.786C118.628 111.106 119.176 111.715 119.443 112.164C119.847 112.766 119.961 113.352 120.075 113.939C120.297 115.256 119.931 116.688 119.147 117.808C118.508 118.935 117.312 119.598 115.842 119.956C114.525 120.177 113.086 119.957 111.958 119.317C110.831 118.678 110.023 117.474 109.665 116.005C110.137 115.304 110.03 114.573 110.068 113.849ZM111.035 112.014C110.533 113.293 110.32 114.588 110.686 115.913C111.051 117.238 111.714 118.434 112.842 119.073C113.969 119.713 115.264 119.926 116.436 119.697C117.609 119.468 118.805 118.805 119.437 117.823C120.068 116.84 120.426 115.553 120.205 114.236C120.091 113.649 119.976 113.063 119.565 112.606C119.298 112.157 118.742 111.692 118.323 111.38C117.904 111.068 117.341 110.748 116.48 110.558C115.909 110.383 115.33 110.353 114.607 110.315C114.462 110.307 114.317 110.299 114.165 110.437C114.02 110.429 113.868 110.566 113.723 110.559L112.832 110.947C112.109 110.909 111.507 111.313 111.035 112.014Z" fill="black"/>
<path d="M115.825 111.975C114.112 111.45 111.972 113.514 112.315 115.273C112.437 115.715 112.711 116.019 113.146 116.042C113.58 116.065 114.021 115.943 114.333 115.524C114.486 115.387 114.493 115.242 114.646 115.105L114.798 114.968L114.805 114.823L114.958 114.686L115.11 114.549C115.11 114.549 115.407 114.419 115.262 114.412C115.559 114.282 115.849 114.297 116.001 114.16C117.037 113.779 116.968 112.325 115.825 111.975Z" fill="white"/>
<path d="M116.626 97.2601C106.641 96.7368 98.1132 104.415 97.5899 114.4C97.0666 124.384 104.745 132.912 114.73 133.435C124.714 133.959 133.242 126.28 133.765 116.296C134.289 106.311 126.61 97.7833 116.626 97.2601ZM125.357 122.239C124.792 121.949 123.014 122.378 118.303 122C113.593 121.623 108.799 120.08 105.108 117.681C101.403 115.282 100.715 109.862 100.715 109.862C100.715 109.862 106.138 109.102 113.302 109.739C120.465 110.375 124.226 113.097 125.401 115.306C126.577 117.515 127.714 121.855 127.714 121.855C127.598 122.676 125.922 122.53 125.357 122.239Z" fill="white"/>
<path d="M128.916 123.819C129.584 121.329 129.687 118.534 128.723 116.162C128.607 115.88 128.165 116.002 128.165 116.278C128.156 117.569 128.149 118.802 128.085 120.032C127.31 117.379 125.91 113.911 123.633 111.949C121.148 109.816 115.27 108.724 109.665 108.532C109.56 108.396 109.411 108.301 109.244 108.263C105.128 107.337 104.94 105.383 104.941 105.368C104.942 105.264 104.921 105.16 104.881 105.064C104.841 104.967 104.782 104.88 104.707 104.807C104.632 104.734 104.543 104.677 104.446 104.639C104.349 104.601 104.245 104.583 104.14 104.586C103.705 104.592 103.353 104.937 103.358 105.387C103.353 105.488 103.409 107.189 105.644 108.568C105.033 108.594 104.421 108.635 103.853 108.692C99.0911 108.457 98.0884 105.996 98.0358 105.891C97.9608 105.699 97.8146 105.542 97.6276 105.454C97.4405 105.366 97.2267 105.353 97.0304 105.418C96.6161 105.57 96.4045 106.009 96.5569 106.423C96.595 106.527 97.258 108.274 99.8575 109.339L99.7105 109.374L99.5179 109.451C99.4135 109.504 96.8709 110.952 94.2225 108.884C94.1401 108.82 94.046 108.774 93.9455 108.747C93.8451 108.72 93.7404 108.713 93.6373 108.726C93.5342 108.74 93.4347 108.773 93.3446 108.825C93.2545 108.877 93.1755 108.946 93.1121 109.029C93.0487 109.111 93.0022 109.205 92.9752 109.306C92.9482 109.406 92.9412 109.511 92.9546 109.614C92.9681 109.717 93.0017 109.816 93.0536 109.906C93.1055 109.997 93.1747 110.076 93.2571 110.139C96.4776 112.644 99.615 111.198 100.227 110.867C100.36 110.83 100.491 110.808 100.624 110.772C100.485 110.939 100.415 111.153 100.461 111.387C100.537 111.87 102.339 122.063 119.096 122.941C120.962 123.039 123.024 123.017 125.296 122.86C125.733 122.825 126.057 122.45 126.022 122.013C126.015 121.91 125.987 121.809 125.94 121.716C125.893 121.623 125.829 121.541 125.75 121.473C125.671 121.406 125.58 121.354 125.481 121.322C125.382 121.29 125.278 121.278 125.175 121.287C104.173 122.783 102.089 111.618 102.012 111.135C101.994 111.014 101.946 110.9 101.872 110.802C101.799 110.705 101.703 110.627 101.592 110.576C107.979 109.416 119.433 110.423 122.64 113.173C126.153 116.187 127.38 123.796 127.404 123.885C127.425 124.031 127.505 124.166 127.601 124.272L127.541 124.588C127.374 125.291 128.385 125.648 128.625 124.95C128.727 124.665 128.815 124.379 128.888 124.093C128.893 123.992 128.912 123.906 128.916 123.819Z" fill="black"/>
<path d="M168.778 112.138C171.961 112.305 174.292 114.894 174.125 118.077C173.958 121.26 171.225 123.584 168.186 123.425C165.147 123.265 162.672 120.669 162.839 117.486C163.005 114.302 165.739 111.979 168.778 112.138Z" fill="black"/>
<path d="M163.721 114.485C163.074 115.757 162.991 117.348 163.356 118.674C163.722 119.999 164.385 121.194 165.512 121.834C166.64 122.473 168.079 122.694 169.252 122.465C170.569 122.244 171.62 121.573 172.404 120.454C173.044 119.326 173.401 118.039 173.18 116.722C173.066 116.135 172.807 115.541 172.548 114.947C172.136 114.491 171.733 113.889 171.169 113.569C170.605 113.249 170.042 112.93 169.326 112.747C168.755 112.572 168.031 112.534 167.308 112.496C167.163 112.489 167.018 112.481 166.721 112.611C166.577 112.603 166.424 112.74 166.28 112.733L165.389 113.121C164.787 113.525 164.178 114.073 163.721 114.485C164.041 113.921 164.505 113.365 165.114 112.817C165.419 112.542 165.716 112.413 166.158 112.291C166.31 112.154 166.455 112.161 166.744 112.177C167.033 112.192 167.041 112.047 167.33 112.062C168.061 111.955 168.937 111.856 169.653 112.039C170.369 112.221 171.085 112.404 171.786 112.876C172.494 113.203 173.187 113.82 173.591 114.422C174.14 115.031 174.383 115.914 174.635 116.653C174.986 118.267 174.605 119.989 173.661 121.39C173.189 122.091 172.58 122.639 171.834 123.035C171.087 123.432 170.341 123.828 169.465 123.927C167.859 124.133 166.13 123.897 164.88 122.816C164.18 122.344 163.631 121.735 163.235 120.989C162.839 120.242 162.587 119.504 162.481 118.773C162.412 117.318 162.929 115.749 163.721 114.485Z" fill="white"/>
<path d="M168.148 124.148C166.846 124.08 165.703 123.73 164.728 122.953C164.028 122.481 163.479 121.872 163.083 121.126C162.687 120.38 162.435 119.641 162.336 118.765C162.13 117.158 162.648 115.589 163.439 114.325C163.752 113.906 164.064 113.487 164.368 113.213L164.673 112.939L164.665 113.083L164.97 112.809C165.274 112.535 165.571 112.405 166.021 112.139C166.173 112.001 166.318 112.009 166.615 111.879C166.759 111.887 167.056 111.758 167.201 111.765C168.084 111.521 168.808 111.559 169.669 111.749C170.529 111.94 171.245 112.122 171.946 112.594C172.647 113.066 173.347 113.538 173.888 114.292C174.437 114.901 174.681 115.785 174.925 116.668C175.275 118.282 174.887 120.148 173.943 121.55C173.471 122.251 172.854 122.944 172.108 123.34C171.362 123.736 170.616 124.132 169.74 124.232L168.148 124.148ZM163.029 116.625C162.846 117.341 162.808 118.064 162.915 118.795C163.022 119.527 163.273 120.265 163.525 121.004C163.928 121.605 164.477 122.215 165.033 122.679C166.29 123.615 167.866 123.988 169.473 123.782C170.204 123.676 171.088 123.432 171.689 123.028C172.291 122.624 172.9 122.076 173.372 121.375C174.308 120.118 174.544 118.389 174.338 116.782C174.239 115.907 173.843 115.16 173.439 114.559C173.035 113.957 172.334 113.485 171.634 113.013C170.925 112.686 170.362 112.366 169.501 112.176C168.785 111.993 168.054 112.1 167.178 112.199C167.034 112.192 166.881 112.329 166.592 112.314C166.447 112.306 166.295 112.443 166.006 112.428C165.709 112.557 165.556 112.695 165.259 112.824C165.556 112.695 165.709 112.557 165.998 112.573C166.143 112.58 166.295 112.443 166.584 112.458C166.729 112.466 166.874 112.473 167.171 112.344C168.046 112.245 168.618 112.42 169.189 112.595C170.042 112.93 170.613 113.105 171.025 113.562C171.588 113.881 172.137 114.49 172.403 114.94C172.807 115.541 172.921 116.128 173.036 116.714C173.257 118.032 172.892 119.463 172.108 120.583C171.468 121.71 170.273 122.373 168.803 122.731C167.485 122.953 166.046 122.732 164.919 122.093C163.791 121.453 162.984 120.25 162.626 118.78C162.953 118.072 162.991 117.348 163.029 116.625ZM163.851 114.782C163.348 116.061 163.135 117.356 163.501 118.681C163.867 120.006 164.53 121.202 165.657 121.841C166.785 122.481 168.079 122.694 169.252 122.465C170.425 122.236 171.62 121.573 172.252 120.591C172.884 119.608 173.242 118.321 173.021 117.003C172.906 116.417 172.792 115.831 172.381 115.374C172.114 114.925 171.558 114.46 171.139 114.148C170.72 113.836 170.156 113.516 169.296 113.326C168.724 113.151 168.146 113.121 167.422 113.083C167.277 113.075 167.133 113.067 166.981 113.205C166.836 113.197 166.684 113.334 166.539 113.326L165.648 113.715C164.924 113.677 164.467 114.089 163.851 114.782Z" fill="black"/>
<path d="M168.786 114.75C167.072 114.225 164.932 116.289 165.275 118.049C165.397 118.49 165.672 118.795 166.106 118.818C166.54 118.84 166.982 118.718 167.294 118.299C167.446 118.162 167.454 118.018 167.606 117.881L167.758 117.743L167.766 117.599L167.918 117.462L168.07 117.324C168.07 117.324 168.367 117.195 168.223 117.187C168.52 117.058 168.809 117.073 168.961 116.936C169.852 116.547 169.928 115.1 168.786 114.75Z" fill="white"/>
<path d="M168.66 99.987C158.676 99.4637 150.148 107.142 149.624 117.127C149.101 127.111 156.78 135.639 166.764 136.162C176.748 136.686 185.276 129.007 185.8 119.023C186.323 109.038 178.659 100.511 168.66 99.987ZM177.57 121.842C173.635 123.841 168.72 124.875 163.995 124.758C159.271 124.641 157.548 124.028 156.955 124.258C156.363 124.488 154.681 124.458 154.653 123.615C154.653 123.615 156.237 119.418 157.637 117.344C159.037 115.269 163.061 112.956 170.252 113.071C177.443 113.187 182.757 114.51 182.757 114.51C182.757 114.51 181.505 119.842 177.57 121.842Z" fill="white"/>
<path d="M190.419 114.491C190.365 114.402 190.294 114.325 190.209 114.264C190.125 114.203 190.03 114.159 189.929 114.135C189.827 114.111 189.723 114.107 189.62 114.123C189.517 114.14 189.419 114.176 189.33 114.231C186.481 115.997 184.103 114.305 184.004 114.242L183.821 114.145L183.678 114.094C186.361 113.306 187.217 111.639 187.266 111.54C187.352 111.352 187.362 111.137 187.294 110.941C187.226 110.746 187.085 110.584 186.9 110.49C186.807 110.444 186.706 110.417 186.603 110.411C186.5 110.404 186.396 110.418 186.298 110.452C186.2 110.486 186.11 110.54 186.034 110.609C185.957 110.678 185.894 110.762 185.85 110.856C185.802 110.955 184.547 113.298 179.773 113.033C179.199 112.916 178.609 112.813 178.004 112.723C180.371 111.585 180.605 109.885 180.61 109.798C180.662 109.365 180.348 108.972 179.916 108.92C179.812 108.906 179.707 108.913 179.606 108.94C179.505 108.968 179.411 109.016 179.329 109.08C179.247 109.145 179.179 109.226 179.129 109.317C179.079 109.409 179.048 109.51 179.038 109.614C179.037 109.629 178.646 111.552 174.456 112.044C174.281 112.064 174.131 112.157 174.009 112.267C168.414 111.872 162.455 112.343 159.76 114.205C155.485 117.158 153.366 124.912 153.276 125.241C153.167 125.67 153.421 126.09 153.835 126.213C154.036 126.264 154.249 126.234 154.429 126.13C154.608 126.025 154.739 125.854 154.793 125.654C154.811 125.582 156.841 118.129 160.65 115.499C164.128 113.099 175.624 113.295 181.855 115.116C181.632 115.206 181.434 115.384 181.378 115.628C181.252 116.1 178.011 126.987 157.281 123.303C157.076 123.267 156.864 123.314 156.693 123.432C156.521 123.551 156.402 123.732 156.363 123.937C156.282 124.368 156.58 124.775 156.997 124.855C159.24 125.248 161.288 125.486 163.154 125.584C179.911 126.462 182.768 116.513 182.894 116.041C182.946 115.827 182.911 115.6 182.797 115.412C182.925 115.462 183.054 115.498 183.181 115.548C183.756 115.941 186.725 117.707 190.189 115.553C190.534 115.353 190.646 114.866 190.419 114.491Z" fill="black"/>
<path d="M94.3374 98.1088C94.6389 97.8924 101.864 92.6557 105.327 92.46C108.791 92.2642 129.069 98.7682 130.315 101.01C130.871 102.026 130.961 102.8 130.571 103.33C130.243 103.763 129.653 103.95 128.785 103.904C128.221 103.875 127.516 103.751 126.701 103.519C125.342 103.143 121.679 101.617 117.802 100.006C112.576 97.8313 106.669 95.3742 105.198 95.1956C103.137 94.928 96.98 97.7975 94.7884 98.9159C94.5798 99.0211 94.3224 98.9496 94.2028 98.7402C94.1442 98.6366 94.1256 98.5153 94.1504 98.3989C94.1752 98.2826 94.2417 98.1794 94.3374 98.1088Z" fill="black"/>
<path d="M190.737 103.161C190.46 102.914 183.822 96.951 180.398 96.3943C176.974 95.8376 156.128 100.186 154.654 102.286C153.994 103.238 153.824 103.998 154.157 104.567C154.437 105.031 155.005 105.278 155.873 105.324C156.437 105.354 157.151 105.304 157.985 105.159C159.376 104.927 163.179 103.792 167.203 102.595C172.627 100.978 178.759 99.1524 180.24 99.1284C182.318 99.0777 188.142 102.575 190.204 103.917C190.401 104.043 190.664 103.999 190.805 103.803C190.947 103.593 190.918 103.315 190.737 103.161Z" fill="black"/>
<path d="M134.278 144.718C137.096 146.317 140.348 147.938 143.463 146.651C146.73 145.226 146.904 141.898 146.782 138.699C146.117 129.233 145.018 119.744 143.478 110.377C143.249 109.204 141.49 109.547 141.719 110.72C142.809 117.597 143.755 124.466 144.404 131.465C144.664 134.815 145.616 138.783 145.008 142.088C144.011 147.26 138.33 144.931 135.374 143.18C134.239 142.685 133.288 144.231 134.278 144.718Z" fill="black"/>
<path d="M117.911 62.3195C117.911 62.3195 128.195 45.1582 142.796 43.3119C157.546 41.3283 169.101 48.7529 164.988 59.4186C160.874 70.0843 156.761 88.8748 171.435 88.3381C186.109 87.8014 195.804 98.1752 196.132 108.203C196.687 122.015 181.573 130.944 182.772 143.339C183.971 155.734 197.523 149.48 204.181 158.099C210.84 166.718 190.283 168.252 188.134 176.699C185.985 185.146 197.328 196.622 204.509 195.258C204.509 195.258 196.4 189.9 201.062 185.066C205.716 180.377 219.932 183.153 227.343 174.692C237.317 163.462 233.704 145.573 221.768 137.258C209.833 128.943 225.365 120.181 233.541 107.987C241.716 95.7936 229.122 81.0603 212.41 71.6246C195.699 62.1888 200.408 53.7305 204.28 47.6948C208.151 41.659 198.631 27.9574 176.79 29.5694C154.949 31.1814 160.621 23.3539 152.565 16.9833C144.666 10.3307 134.312 12.5447 128.074 20.3424C121.835 28.1402 104.911 22.7556 101.671 33.0319C101.671 33.0319 85.1522 25.3472 79.0325 33.5865C72.9128 41.8257 75.6026 47.4799 67.8063 52.4394C60.0099 57.399 56.7241 68.5433 62.0833 77.5293C67.4424 86.5152 46.6953 83.5418 44.3567 95.6063C42.018 107.671 54.1657 111.935 56.0563 127.413C57.9468 142.891 48.8007 146.474 45.2995 156.301C41.7983 166.128 57.8256 172.336 69.4796 177.88C81.1336 183.424 70.0667 199.238 70.0667 199.238C70.0667 199.238 92.4532 187.209 88.3825 172.632C84.3117 158.055 78.0343 158.452 81.6014 150.079C85.1685 141.706 97.863 143.677 98.3862 133.693C98.9094 123.71 92.4954 126.711 92.1981 116.104C91.916 105.208 96.168 108.187 99.0738 96.1526C101.261 86.9818 93.5243 82.659 94.4654 72.8426C95.4064 63.0262 109.87 55.6595 117.911 62.3195Z" fill="white"/>
<path d="M234.449 155.768C233.583 147.888 229.14 140.401 222.688 136C220.353 134.427 219.16 132.769 218.967 131.018C218.582 127.515 222.512 123.079 226.882 118.375C229.601 115.325 232.47 112.139 234.928 108.641C237.551 104.716 238.346 100.405 237.313 95.7079C235.215 86.8929 226.46 77.584 213.345 70.0776C206.988 66.5527 203.342 62.8795 202.546 59.0656C201.609 55.2443 203.492 51.861 205.824 48.066C207.379 45.5359 207.277 42.0486 205.317 38.754C201.926 32.9179 192.586 26.6251 177.172 27.7034C163.042 28.7039 161.343 25.8582 159.137 21.8253C157.959 19.8775 156.804 17.4956 154.067 15.4661C145.593 8.92846 134.418 10.5191 127.552 19.4446C125.116 22.5088 120.234 23.4136 115.509 24.0365C109.776 24.8967 103.894 25.8942 101.352 30.984C97.0314 29.3068 84.1747 25.0059 78.369 32.6812C75.6117 36.454 74.4522 39.5851 73.5915 42.4417C72.4093 46.0068 71.5638 48.574 67.5833 51.2671C58.7488 57.0428 55.843 69.0775 61.3288 78.3603C61.8505 79.2581 62.0886 80.1411 61.9241 80.5677C61.4304 81.8476 58.6678 83.0086 56.0546 84.0323C50.97 86.0872 44.7282 88.5167 43.3716 95.4096C42.015 102.303 45.0415 106.959 48.3365 111.919C51.2363 116.279 54.2704 120.79 55.0409 127.795C56.2345 137.578 52.8645 142.189 49.33 147.227C47.4842 149.887 45.4967 152.539 44.322 155.96C40.6639 166.069 53.9893 172.28 65.6433 177.824C66.8968 178.325 68.0009 178.963 69.1126 179.457C71.4703 180.596 72.8125 182.117 73.4078 184.325C74.9404 190.353 69.2538 198.47 69.2462 198.615L65.861 203.515L71.1253 200.745C72.1483 200.218 94.4006 188.036 90.0993 172.432C88.3059 165.954 86.0771 162.355 84.3701 159.654C82.2756 156.208 81.4854 155.006 83.2652 150.891C84.7159 147.63 87.7848 146.05 91.1374 144.485C95.2217 142.523 99.8885 140.301 100.215 134.079C100.51 128.437 98.6311 126.307 97.0204 124.482C95.5439 122.808 94.2093 121.142 94.0265 116.49C93.8892 110.97 94.8235 109.423 96.3629 107.182C97.7529 105.079 99.4493 102.556 100.745 96.8205C102.018 91.5191 100.223 87.7979 98.7106 84.0916C97.1757 80.8193 95.9169 77.7065 96.2862 73.3734C96.6554 69.0402 100.144 64.8705 105.229 62.8156C107.267 61.9068 109.276 61.5768 111.261 61.6809C109.23 62.445 107.452 63.8026 106.197 66.0582C105.105 67.8871 104.85 70.05 105.169 72.0979C105.957 76.0564 112.364 81.3251 108.316 85.3204C107.561 86.1513 108.627 87.513 109.524 86.6894C111.481 84.6157 111.752 82.1635 110.895 79.5071C109.897 76.8433 107.451 74.6839 106.894 71.753C105.928 65.7539 111.051 62.9756 116.029 62.9464C116.581 63.2655 117.133 63.5846 117.678 64.0484L118.901 65.1281L119.828 63.7258C119.828 63.7258 119.992 63.2991 120.448 62.7427C125.282 57.3377 132.093 52.1815 139.251 51.2509C148.552 50.1424 153.21 58.9465 150.218 67.2045C148.894 70.7623 146.607 73.6892 145.291 77.1022C143.982 80.3706 143.471 84.6963 145.872 87.7239C148.541 91.0556 161.402 89.8435 160.271 95.1524C160.068 96.3024 161.747 96.8257 161.95 95.6756C162.37 93.0861 162.17 91.4797 159.984 89.7692C157.523 87.8992 154.163 89.6092 151.663 88.4626C149.133 87.8948 146.155 87.7387 145.907 81.6321C146.484 78.7607 147.486 75.9115 149.175 73.5336C149.967 71.9792 150.894 70.5769 151.552 68.8704C153.026 65.1754 153.813 61.0093 152.592 57.1731C148.58 44.1954 135.387 49.0172 126.082 55.6386C130.302 51.0721 136.531 46.1755 143.832 45.2523C152.424 44.1067 160.132 46.2517 163.591 50.7855C165.455 53.2045 165.863 56.2727 164.562 59.3963C162.909 63.8073 157.717 78.7691 162.876 86.1486C164.859 89.0091 168.06 90.3375 172.471 90.2785C178.883 90.0342 184.747 92.0826 189.238 95.945C193.176 99.4883 195.635 104.115 195.676 108.76C195.902 115.3 192.345 120.772 188.937 126.107C185.379 131.579 181.807 137.34 182.316 143.895C183.034 151.913 188.795 153.23 193.854 154.366C197.653 155.145 201.444 156.069 203.971 159.394C204.769 160.451 205.149 161.341 204.969 162.057C204.587 163.924 201.219 165.778 198.001 167.496C193.752 169.884 188.787 172.381 187.701 176.822C186.615 181.262 188.477 186.438 192.645 191.009C196.679 195.428 201.813 197.873 205.694 197.061L209.143 196.371L206.256 194.479C205.152 193.84 202.296 191.369 201.991 189.032C201.895 188.157 202.224 187.303 202.971 186.617C204.622 184.963 208.213 184.28 212.087 183.613C217.969 182.615 224.718 181.373 229.26 176.098C233.266 170.214 235.339 163.214 234.449 155.768ZM202.532 40.349C203.97 42.7457 204.132 45.0756 203.198 46.6226C201.188 49.7091 198.236 54.4872 199.515 59.9224C200.698 64.482 204.606 68.6041 211.783 72.7524C224.077 79.6353 232.564 88.6401 234.431 96.4274C235.368 100.249 234.611 103.836 232.452 107.06C230.284 110.428 227.423 113.47 224.711 116.375C224.413 116.649 224.114 116.924 223.949 117.351C225.033 115.666 225.967 114.119 226.625 112.413C228.436 107.72 228.716 102.367 227.556 97.3729C225.251 87.0961 217.271 79.2786 207.952 75.3082C200.304 72.0057 187.69 71.1996 190.014 59.4245C190.996 54.2529 195.126 51.4225 194.578 45.5905C193.734 37.2764 187.14 32.8685 179.999 30.7532C192.381 30.5317 199.796 35.563 202.532 40.349ZM45.7596 95.97C46.7492 90.6538 52.1174 88.6138 56.7614 86.826C60.39 85.4202 63.4438 84.1294 64.2893 81.5622C64.7905 80.1376 64.4409 78.6685 63.3975 76.8728C58.6867 69.0815 61.0837 58.616 68.7307 53.7937C69.1713 53.5266 69.6195 53.1148 70.0601 52.8478C68.4903 55.6672 67.4727 58.8057 66.8653 62.2559C64.742 75.6375 73.5963 91.1903 62.2275 101.911C59.2321 104.801 54.9908 107.045 53.0768 111.007C52.7476 111.86 52.4185 112.714 52.2388 113.43L50.2709 110.28C46.9684 105.464 44.4636 101.705 45.7596 95.97ZM226.404 173.627C222.474 178.064 216.3 179.191 210.843 180.211C206.394 180.993 202.52 181.661 200.122 184.001C198.77 185.381 198.112 187.088 198.304 188.839C198.505 190.445 199.272 192.081 200.346 193.298C198.257 192.464 195.922 190.89 193.908 188.609C190.411 184.798 188.795 180.361 189.678 177.07C190.554 173.924 194.796 171.68 198.596 169.703C202.546 167.589 206.355 165.467 207.089 162.314C207.456 160.737 206.98 158.971 205.503 157.298C202.305 153.213 197.805 152.251 193.73 151.313C188.671 150.177 184.88 149.253 184.332 143.421C183.769 137.878 187.02 132.825 190.428 127.491C194.143 121.737 198.006 115.846 197.684 108.43C197.547 102.909 194.7 97.537 190.217 93.5299C185.325 89.2111 178.616 86.9735 171.496 87.1806C168.219 87.2991 165.846 86.4493 164.392 84.3419C160.956 79.3741 163.226 68.6117 166.36 60.3611C167.998 56.2395 167.501 52.1511 164.974 48.8268C160.985 43.5398 152.157 41.0459 142.565 42.2843C129.838 43.6484 120.364 56.2095 117.591 60.2716C113.734 57.8932 108.629 57.6257 103.545 59.6806C97.5791 62.2696 93.4773 67.2777 92.9131 72.6162C92.3565 77.8101 94.1523 81.5313 95.5453 84.7962C97.065 88.3578 98.4732 91.3333 97.3949 95.6294C96.1293 100.786 94.7317 103.034 93.3493 104.993C91.6529 107.516 90.2629 109.619 90.4965 116.015C90.6186 121.825 92.4977 123.954 94.2427 125.932C95.7116 127.75 96.9196 129.119 96.6921 133.46C96.4646 137.8 93.6869 139.25 89.1619 141.48C85.66 143.182 81.725 145.007 79.9301 149.411C77.649 154.95 79.0876 157.346 81.3239 160.8C82.8967 163.349 84.9988 166.651 86.6656 172.832C89.3001 182.256 79.7619 190.606 73.7051 194.931C74.8343 192.379 75.8519 189.24 75.8694 186.195L75.8845 185.905C76.0005 180.978 73.473 177.654 69.7959 174.56C66.6632 171.929 62.6418 169.977 60.4055 166.523C56.3507 159.782 60.4145 155.497 64.5011 150.779C67.5268 147.31 70.8438 143.712 70.9598 138.785C71.4375 129.67 62.4346 122.379 65.1888 113.238C67.0975 106.664 74.018 104.85 77.1574 99.2115C80.312 93.2832 77.9665 86.4864 76.0085 80.4354C72.6877 70.5407 73.33 60.9988 81.6731 53.7465C90.3074 46.3645 102.1 46.5473 112.465 49.5569C113.584 49.9057 114.101 48.1918 112.981 47.843C99.3929 43.939 82.8219 45.3919 74.996 59.0549C71.3932 65.3949 71.485 71.7834 73.5469 78.5653C75.3783 84.3196 78.0681 89.9738 76.4582 96.2731C75.1926 101.43 69.5256 103.744 66.3505 107.35C62.2715 111.924 62.1555 116.851 63.9869 122.605C66.0715 128.953 70.4858 134.262 68.4125 141.263C67.0354 145.833 63.764 148.564 60.7307 152.177C57.6898 155.935 55.3353 160.164 57.3615 164.913C59.4993 170.248 65.0502 172.86 69.2719 176.418L65.9367 174.938C55.2451 170.025 43.1732 164.314 45.9858 156.772C47.1453 153.641 48.8341 151.263 50.6798 148.603C54.3638 143.428 58.2047 137.971 56.9223 127.168C56.4332 122.935 55.1895 119.533 53.6395 116.55C53.0995 110.573 56.7736 108.299 60.3438 105.294C62.7265 103.243 65.1015 101.336 66.6637 98.6615C70.2513 92.6109 69.6454 85.1798 68.8597 78.4648C67.4583 67.2198 67.1458 56.9025 75.1393 48.1811C83.1328 39.4597 95.3229 37.487 106.037 41.9658C107.149 42.4594 107.666 40.7454 106.554 40.2519C95.1455 35.4466 82.4844 38.265 74.5289 46.263C74.8656 45.2651 75.1947 44.4118 75.5314 43.4139C76.3845 40.702 77.387 37.8528 79.8379 34.4992C81.833 31.7021 85.4237 31.0198 88.8271 31.1981C94.6412 31.5029 100.61 34.2821 100.752 34.2895L102.281 34.95L102.79 33.3808C104.317 28.673 109.333 27.9203 115.215 26.9228L117.365 26.6002C117.066 26.8747 116.775 27.0046 116.476 27.2791C113.197 30.154 110.992 34.2459 109.362 38.2228C108.876 39.358 110.555 39.8812 111.041 38.746C113.165 33.4892 116.117 28.7111 121.366 26.2296C123.412 25.1761 125.592 24.2748 127.228 22.9097L129.021 21.2626C134.961 13.7394 144.568 12.2117 151.669 17.8069C153.996 19.5247 155.032 21.4651 156.068 23.4055C156.851 24.7523 157.641 25.9544 158.58 27.0192C140.788 24.6359 117.256 23.2576 114.589 44.3001C114.387 45.4502 116.23 45.5468 116.291 44.3893C118.943 23.6361 144.235 26.7027 161.452 29.2009C163.668 30.3326 166.765 30.9302 171.46 30.886L171.743 30.9009C180.662 31.6585 193.526 35.8147 192.629 47.5195C192.199 53.0102 187.15 57.0981 187.429 62.6259C187.84 71.0623 197.108 73.2891 203.257 75.3523C217.24 79.8574 230.045 93.2959 225.501 109.452C223.906 115.462 218.229 120.678 216.784 126.551C216.133 128.112 215.766 129.689 215.974 131.151C216.263 133.778 217.851 136.037 221.006 138.234C226.765 142.308 230.686 148.897 231.59 156.053C232.384 162.624 230.49 168.908 226.404 173.627ZM201.965 129.836C207.444 120.258 215.81 112.571 214.32 100.306C213.319 92.2742 207.92 86.7682 200.824 83.7848C194.982 81.3024 188.563 81.6914 182.855 79.3611C171.857 74.8674 177.619 65.3037 178.044 57.2012C178.349 48.6572 173.362 40.7064 166.484 36.2836C150.401 25.72 126.86 35.3676 117.092 50.815C116.479 51.6534 117.986 52.7479 118.606 51.7648C130.078 33.6502 163.27 24.3633 174.401 48.0151C177.345 54.2629 175.631 59.8313 174.446 66.153C174.026 68.7425 173.598 71.4767 174.462 73.9884C176.823 80.4958 184.01 81.7429 189.92 82.9232C203.301 85.3655 216.125 93.0016 211.857 109.318C209.379 118.618 201.119 124.279 198.373 133.275C196.651 138.988 199.237 143.912 203.451 147.615C206.3 150.23 209.62 152 212.477 154.471C216.012 157.558 217.473 159.521 217.216 164.44C216.927 169.938 214.844 171.715 210.288 174.523C209.265 175.05 210.175 176.694 211.056 176.159C217.075 172.558 222.341 167.03 219.033 159.603C214.072 148.461 192.891 145.61 201.965 129.836ZM115.909 54.3801C105.8 49.2076 92.7439 51.4251 86.3763 61.6825C83.5811 66.1787 82.3003 71.6248 82.8706 77.0228C83.2482 80.6697 84.6716 83.3558 86.0647 86.6207C89.484 94.6344 86.7852 100.006 82.3164 106.591C78.9312 111.491 74.9182 117.52 77.294 123.738C78.2996 126.257 80.3509 127.815 81.8046 129.923C88.4021 139.699 80.6535 141.034 76.4326 145.6C73.2651 149.062 71.7159 154.203 72.4659 158.885C73.7429 167.077 82.7557 171.467 82.1589 180.14C82.0983 181.298 83.7999 181.387 83.8606 180.23C84.1108 175.455 82.1505 172.16 79.4964 168.539C73.6587 160.544 71.5612 151.729 80.3145 144.788C83.1378 142.47 86.4827 141.049 86.7026 136.853C87.1326 131.363 81.3663 127.433 79.616 122.844C76.4067 113.535 85.0994 107.752 88.4869 100.095C90.7527 94.846 89.823 90.88 87.6777 85.6896C84.1469 77.0897 83.1534 68.9129 88.9667 61.0928C95.0788 52.9983 106.112 51.4002 114.833 55.9197C115.945 56.4132 116.879 54.8662 115.909 54.3801Z" fill="black"/>
</g>
</svg>
